HIERARCHY
ROOT Hips
{
	OFFSET 0.000000 88.474243 0.000000
	CHANNELS 6 Xposition Yposition Zposition Zrotation Yrotation Xrotation 
	JOINT Hips_Spine
	{
		OFFSET 0.000000 0.000000 0.000000
		CHANNELS 3 Zrotation Yrotation Xrotation
		JOINT Spine
		{
			OFFSET 0.005100 8.711998 -0.691000
			CHANNELS 3 Zrotation Yrotation Xrotation
			JOINT Spine1
			{
				OFFSET -0.009200 8.660301 -1.275000
				CHANNELS 3 Zrotation Yrotation Xrotation
				JOINT Spine2
				{
					OFFSET 0.006300 9.852501 -1.857000
					CHANNELS 3 Zrotation Yrotation Xrotation
					JOINT Spine2_Neck
					{
						OFFSET 0.000000 0.000000 0.000000
						CHANNELS 3 Zrotation Yrotation Xrotation
						JOINT Neck
						{
							OFFSET 0.016300 11.420799 -0.263300
							CHANNELS 3 Zrotation Yrotation Xrotation
							End Site #name: Head
							{
								OFFSET -0.019200 9.262405 2.362500
							}
						}
					}
					JOINT Spine2_LeftShoulder
					{
						OFFSET 0.000000 0.000000 0.000000
						CHANNELS 3 Zrotation Yrotation Xrotation
						JOINT LeftShoulder
						{
							OFFSET 5.616900 6.732201 -0.345700
							CHANNELS 3 Zrotation Yrotation Xrotation
							JOINT LeftArm
							{
								OFFSET 10.664888 -0.183372 -2.440700
								CHANNELS 3 Zrotation Yrotation Xrotation
								JOINT LeftForeArm
								{
									OFFSET 27.459126 0.000000 0.000000
									CHANNELS 3 Zrotation Yrotation Xrotation
									End Site #name: LeftHand
									{
										OFFSET 21.306858 0.000000 0.000000
									}
								}
							}
						}
					}
					JOINT Spine2_RightShoulder
					{
						OFFSET 0.000000 0.000000 0.000000
						CHANNELS 3 Zrotation Yrotation Xrotation
						JOINT RightShoulder
						{
							OFFSET -5.580300 6.737503 -0.344400
							CHANNELS 3 Zrotation Yrotation Xrotation
							JOINT RightArm
							{
								OFFSET -10.679335 -0.188484 -2.383900
								CHANNELS 3 Zrotation Yrotation Xrotation
								JOINT RightForeArm
								{
									OFFSET -27.503529 0.000000 0.000000
									CHANNELS 3 Zrotation Yrotation Xrotation
									End Site #name: RightHand
									{
										OFFSET -21.306808 0.000000 0.000000
									}
								}
							}
						}
					}
				}
			}
		}
	}
	JOINT Hips_LeftUpLeg
	{
		OFFSET 0.000000 0.000000 0.000000
		CHANNELS 3 Zrotation Yrotation Xrotation
		JOINT LeftUpLeg
		{
			OFFSET 6.857700 -6.739601 0.312100
			CHANNELS 3 Zrotation Yrotation Xrotation
			JOINT LeftLeg
			{
				OFFSET -0.367590 -34.731552 -4.572400
				CHANNELS 3 Zrotation Yrotation Xrotation
				End Site #name: LeftFoot
				{
					OFFSET 0.367590 -34.656704 -6.067400
				}
			}
		}
	}
	JOINT Hips_RightUpLeg
	{
		OFFSET 0.000000 0.000000 0.000000
		CHANNELS 3 Zrotation Yrotation Xrotation
		JOINT RightUpLeg
		{
			OFFSET -6.876100 -6.733299 0.301000
			CHANNELS 3 Zrotation Yrotation Xrotation
			JOINT RightLeg
			{
				OFFSET 0.347353 -34.795158 -4.515900
				CHANNELS 3 Zrotation Yrotation Xrotation
				End Site #name: RightFoot
				{
					OFFSET -0.347353 -34.589367 -6.070300
				}
			}
		}
	}
}
MOTION
Frames: 7
Frame Time: 0.041667
-0.090476 -0.015745 0.112181 -0.630002 -14.104510 -1.733018 -0.000000 -0.000000 -0.000000 -1.759989 -0.778593 8.306148 -0.644526 -0.676796 0.497627 0.000000 0.000000 0.000000 -0.557730 -0.756311 0.051187 0.818202 -1.375635 1.092427 -0.873812 -0.707935 -0.308812 -18.821027 4.450155 0.125911 -50.154371 -2.721904 39.542207 0.232395 -49.286447 0.000882 -0.335233 -0.326402 0.395820 17.066862 9.754302 3.447327 62.084305 -5.865477 1.961393 0.559184 62.562074 0.592146 0.000000 0.000000 0.000000 2.960393 8.880615 -12.968184 1.648033 -0.806716 11.553411 0.000000 0.000000 0.000000 -0.489242 -12.052607 -13.589711 0.740575 1.793079 17.069269 
-0.236141 0.054128 0.113839 -0.101487 -15.175165 -1.626246 -0.000000 -0.000000 -0.000000 -1.521950 -2.275398 7.004513 -0.503754 -0.284918 0.784467 0.000000 0.000000 0.000000 -0.196535 -0.387201 0.533965 0.552818 -1.104880 -0.056419 -0.125084 -0.204287 0.666514 -15.569748 2.741474 0.897124 -52.596098 -8.636805 39.184831 -0.409240 -55.891310 0.173468 -0.390274 -0.140078 0.098690 18.021375 11.693634 3.961765 60.228590 -3.313724 0.024311 0.229442 61.308439 0.253984 0.000000 0.000000 -0.000000 2.655078 7.995051 -12.440800 0.210467 -3.575792 10.451309 0.000000 -0.000000 0.000000 -1.051141 -12.935388 -13.225852 0.302752 0.476193 15.984628 
-0.362413 0.056608 0.091491 0.192994 -15.943772 -1.535084 -0.000000 -0.000000 -0.000000 -0.648567 -2.522899 7.698090 -0.040287 -0.207788 0.498418 0.000000 0.000000 0.000000 0.008500 -0.291904 0.575416 0.548141 -0.689215 -0.175107 0.161538 -0.101075 0.499149 -14.630124 2.469596 1.201000 -53.569887 -6.051016 35.919326 -0.228223 -54.678449 -0.065030 -0.085130 -0.071421 0.351591 18.331852 12.553996 4.267424 61.731988 -2.069373 2.913685 -0.082310 60.662151 -0.107998 -0.000000 0.000000 -0.000000 2.435370 7.424242 -12.588465 -0.399941 -4.721325 10.477260 0.000000 -0.000000 0.000000 -1.236660 -13.598133 -13.487613 0.619654 1.087438 15.615257 
-0.484648 0.057116 0.066345 0.436060 -16.245280 -1.530377 -0.000000 -0.000000 -0.000000 -0.253547 -2.526885 7.908229 0.166824 -0.180146 0.596288 0.000000 0.000000 0.000000 0.153999 -0.176382 0.631757 0.217166 -0.737136 0.058082 0.306450 -0.103727 0.522897 -13.869678 1.514243 1.351931 -55.807667 -6.076443 37.936696 -0.141607 -52.251145 -0.020105 0.151627 -0.031350 0.525134 18.177936 12.216851 4.290851 61.516072 -0.502169 5.281629 -0.349757 65.413854 -0.482634 -0.000000 0.000000 -0.000000 2.376765 6.925265 -12.784823 -0.483341 -4.446127 10.680681 0.000000 -0.000000 0.000000 -1.457921 -14.177766 -13.664171 0.665651 1.087273 15.653668 
-0.583159 0.060651 0.047715 0.674520 -16.644492 -1.563577 -0.000000 -0.000000 -0.000000 -0.150253 -2.278895 7.800866 0.227545 -0.148282 0.634662 0.000000 0.000000 0.000000 0.201663 -0.115680 0.686275 -0.047305 -0.800654 0.316897 0.335526 -0.107893 0.602049 -13.655495 1.358015 1.357512 -56.378030 -6.167183 37.549974 -0.144166 -49.360521 -0.015800 0.202091 -0.007236 0.611644 18.078153 12.202980 4.312737 60.970172 -0.071623 6.549822 -0.471176 72.034021 -0.689961 -0.000000 0.000000 -0.000000 2.272140 6.653549 -12.830915 -0.472265 -4.122382 10.679831 0.000000 -0.000000 0.000000 -1.679079 -14.429907 -13.874422 0.776207 1.163226 15.869982 
-0.662873 0.065171 0.030593 0.877894 -17.137226 -1.602410 -0.000000 -0.000000 -0.000000 -0.241517 -2.197446 7.910283 0.248043 -0.132949 0.661866 0.000000 0.000000 0.000000 0.225130 -0.104546 0.733719 -0.229393 -0.851704 0.482496 0.370222 -0.117310 0.681639 -13.607227 1.213727 1.416792 -56.338339 -6.499809 37.147017 -0.148455 -48.665778 0.028123 0.234112 -0.011493 0.669178 18.087711 12.227185 4.290062 60.609159 0.014807 7.172353 -0.561861 76.183875 -0.798110 -0.000000 0.000000 -0.000000 2.172845 6.497724 -12.823180 -0.463436 -3.878077 10.670693 0.000000 -0.000000 0.000000 -1.850751 -14.568053 -14.041902 0.816135 1.204569 16.047262 
-0.726086 0.070354 0.014808 1.063408 -17.562984 -1.612483 -0.000000 -0.000000 -0.000000 -0.283314 -2.163337 7.923935 0.279228 -0.128455 0.693390 0.000000 0.000000 0.000000 0.253739 -0.097415 0.757241 -0.252614 -0.891422 0.487187 0.409386 -0.115727 0.731504 -13.639145 1.206780 1.445638 -55.907579 -6.839209 36.769768 -0.157105 -50.443518 0.094030 0.267461 -0.011043 0.698591 18.122318 12.176266 4.255433 60.420868 -0.035979 7.512464 -0.564734 77.464233 -0.801666 -0.000000 0.000000 -0.000000 2.048965 6.330654 -12.858635 -0.467916 -3.740231 10.704997 0.000000 -0.000000 0.000000 -1.990458 -14.679757 -14.209383 0.809874 1.193228 16.183571 
